<mxfile host="app.diagrams.net" agent="Mozilla/5.0 (Windows NT 10.0; Win64; x64) AppleWebKit/537.36 (KHTML, like Gecko) Chrome/133.0.0.0 Safari/537.36 Edg/133.0.0.0" version="26.0.16" pages="2">
  <diagram name="Page-1" id="xpe27I78BW6T5LH5pNLx">
    <mxGraphModel dx="1355" dy="321" grid="1" gridSize="10" guides="1" tooltips="1" connect="1" arrows="1" fold="1" page="1" pageScale="1" pageWidth="850" pageHeight="1100" math="0" shadow="0">
      <root>
        <mxCell id="0" />
        <mxCell id="1" parent="0" />
        <mxCell id="c6FaymkkDzmxYYNCoGBe-19" style="edgeStyle=orthogonalEdgeStyle;rounded=0;orthogonalLoop=1;jettySize=auto;html=1;" edge="1" parent="1" source="c6FaymkkDzmxYYNCoGBe-1" target="c6FaymkkDzmxYYNCoGBe-3">
          <mxGeometry relative="1" as="geometry" />
        </mxCell>
        <mxCell id="c6FaymkkDzmxYYNCoGBe-1" value="" style="sketch=0;points=[[0,0,0],[0.25,0,0],[0.5,0,0],[0.75,0,0],[1,0,0],[0,1,0],[0.25,1,0],[0.5,1,0],[0.75,1,0],[1,1,0],[0,0.25,0],[0,0.5,0],[0,0.75,0],[1,0.25,0],[1,0.5,0],[1,0.75,0]];outlineConnect=0;fontColor=#232F3E;fillColor=#7AA116;strokeColor=#ffffff;dashed=0;verticalLabelPosition=bottom;verticalAlign=top;align=center;html=1;fontSize=12;fontStyle=0;aspect=fixed;shape=mxgraph.aws4.resourceIcon;resIcon=mxgraph.aws4.s3;" vertex="1" parent="1">
          <mxGeometry x="293.25" y="514.75" width="78" height="78" as="geometry" />
        </mxCell>
        <mxCell id="c6FaymkkDzmxYYNCoGBe-12" style="edgeStyle=orthogonalEdgeStyle;rounded=0;orthogonalLoop=1;jettySize=auto;html=1;" edge="1" parent="1" source="c6FaymkkDzmxYYNCoGBe-2" target="c6FaymkkDzmxYYNCoGBe-3">
          <mxGeometry relative="1" as="geometry" />
        </mxCell>
        <mxCell id="c6FaymkkDzmxYYNCoGBe-17" style="edgeStyle=orthogonalEdgeStyle;rounded=0;orthogonalLoop=1;jettySize=auto;html=1;" edge="1" parent="1" source="c6FaymkkDzmxYYNCoGBe-2" target="c6FaymkkDzmxYYNCoGBe-5">
          <mxGeometry relative="1" as="geometry">
            <Array as="points">
              <mxPoint x="756" y="341" />
            </Array>
          </mxGeometry>
        </mxCell>
        <mxCell id="c6FaymkkDzmxYYNCoGBe-18" value="Fetch Data from RDS" style="edgeLabel;html=1;align=center;verticalAlign=middle;resizable=0;points=[];" vertex="1" connectable="0" parent="c6FaymkkDzmxYYNCoGBe-17">
          <mxGeometry x="-0.366" y="3" relative="1" as="geometry">
            <mxPoint x="30" y="82" as="offset" />
          </mxGeometry>
        </mxCell>
        <mxCell id="c6FaymkkDzmxYYNCoGBe-2" value="" style="outlineConnect=0;dashed=0;verticalLabelPosition=bottom;verticalAlign=top;align=center;html=1;shape=mxgraph.aws3.ec2;fillColor=#F58534;gradientColor=none;" vertex="1" parent="1">
          <mxGeometry x="546.25" y="294.75" width="76.5" height="93" as="geometry" />
        </mxCell>
        <mxCell id="c6FaymkkDzmxYYNCoGBe-13" style="edgeStyle=orthogonalEdgeStyle;rounded=0;orthogonalLoop=1;jettySize=auto;html=1;" edge="1" parent="1" source="c6FaymkkDzmxYYNCoGBe-2" target="c6FaymkkDzmxYYNCoGBe-1">
          <mxGeometry relative="1" as="geometry">
            <Array as="points">
              <mxPoint x="570" y="553.75" />
            </Array>
          </mxGeometry>
        </mxCell>
        <mxCell id="c6FaymkkDzmxYYNCoGBe-15" value="Fetch Data from S3" style="edgeLabel;html=1;align=center;verticalAlign=middle;resizable=0;points=[];" vertex="1" connectable="0" parent="c6FaymkkDzmxYYNCoGBe-13">
          <mxGeometry x="-0.1329" y="2" relative="1" as="geometry">
            <mxPoint y="-86" as="offset" />
          </mxGeometry>
        </mxCell>
        <mxCell id="c6FaymkkDzmxYYNCoGBe-26" style="edgeStyle=orthogonalEdgeStyle;rounded=0;orthogonalLoop=1;jettySize=auto;html=1;" edge="1" parent="1" source="c6FaymkkDzmxYYNCoGBe-3" target="c6FaymkkDzmxYYNCoGBe-23">
          <mxGeometry relative="1" as="geometry" />
        </mxCell>
        <mxCell id="c6FaymkkDzmxYYNCoGBe-3" value="" style="outlineConnect=0;dashed=0;verticalLabelPosition=bottom;verticalAlign=top;align=center;html=1;shape=mxgraph.aws3.cloudfront;fillColor=#F58536;gradientColor=none;" vertex="1" parent="1">
          <mxGeometry x="294" y="294.75" width="76.5" height="93" as="geometry" />
        </mxCell>
        <mxCell id="c6FaymkkDzmxYYNCoGBe-10" style="edgeStyle=orthogonalEdgeStyle;rounded=0;orthogonalLoop=1;jettySize=auto;html=1;" edge="1" parent="1" source="c6FaymkkDzmxYYNCoGBe-4" target="c6FaymkkDzmxYYNCoGBe-7">
          <mxGeometry relative="1" as="geometry" />
        </mxCell>
        <mxCell id="c6FaymkkDzmxYYNCoGBe-4" value="" style="outlineConnect=0;dashed=0;verticalLabelPosition=bottom;verticalAlign=top;align=center;html=1;shape=mxgraph.aws3.route_53;fillColor=#F58536;gradientColor=none;" vertex="1" parent="1">
          <mxGeometry x="300" y="107.25" width="70.5" height="85.5" as="geometry" />
        </mxCell>
        <mxCell id="c6FaymkkDzmxYYNCoGBe-5" value="" style="outlineConnect=0;dashed=0;verticalLabelPosition=bottom;verticalAlign=top;align=center;html=1;shape=mxgraph.aws3.rds;fillColor=#2E73B8;gradientColor=none;" vertex="1" parent="1">
          <mxGeometry x="720" y="511.75" width="72" height="81" as="geometry" />
        </mxCell>
        <mxCell id="c6FaymkkDzmxYYNCoGBe-11" style="edgeStyle=orthogonalEdgeStyle;rounded=0;orthogonalLoop=1;jettySize=auto;html=1;" edge="1" parent="1" source="c6FaymkkDzmxYYNCoGBe-7" target="c6FaymkkDzmxYYNCoGBe-2">
          <mxGeometry relative="1" as="geometry" />
        </mxCell>
        <mxCell id="c6FaymkkDzmxYYNCoGBe-7" value="" style="outlineConnect=0;dashed=0;verticalLabelPosition=bottom;verticalAlign=top;align=center;html=1;shape=mxgraph.aws3.classic_load_balancer;fillColor=#F58534;gradientColor=none;" vertex="1" parent="1">
          <mxGeometry x="550" y="114" width="69" height="72" as="geometry" />
        </mxCell>
        <mxCell id="c6FaymkkDzmxYYNCoGBe-9" style="edgeStyle=orthogonalEdgeStyle;rounded=0;orthogonalLoop=1;jettySize=auto;html=1;" edge="1" parent="1" source="c6FaymkkDzmxYYNCoGBe-8" target="c6FaymkkDzmxYYNCoGBe-23">
          <mxGeometry relative="1" as="geometry">
            <mxPoint x="-270" y="109" as="targetPoint" />
          </mxGeometry>
        </mxCell>
        <mxCell id="c6FaymkkDzmxYYNCoGBe-8" value="" style="sketch=0;outlineConnect=0;fontColor=#232F3E;gradientColor=none;fillColor=#232F3D;strokeColor=none;dashed=0;verticalLabelPosition=bottom;verticalAlign=top;align=center;html=1;fontSize=12;fontStyle=0;aspect=fixed;pointerEvents=1;shape=mxgraph.aws4.users;" vertex="1" parent="1">
          <mxGeometry x="-340" y="111" width="78" height="78" as="geometry" />
        </mxCell>
        <mxCell id="c6FaymkkDzmxYYNCoGBe-24" style="edgeStyle=orthogonalEdgeStyle;rounded=0;orthogonalLoop=1;jettySize=auto;html=1;" edge="1" parent="1" source="c6FaymkkDzmxYYNCoGBe-23" target="c6FaymkkDzmxYYNCoGBe-4">
          <mxGeometry relative="1" as="geometry">
            <mxPoint x="69.99996712688426" y="174.82692307692298" as="sourcePoint" />
          </mxGeometry>
        </mxCell>
        <mxCell id="c6FaymkkDzmxYYNCoGBe-23" value="" style="image;aspect=fixed;perimeter=ellipsePerimeter;html=1;align=center;shadow=0;dashed=0;fontColor=#4277BB;labelBackgroundColor=default;fontSize=12;spacingTop=3;image=img/lib/ibm/users/browser.svg;" vertex="1" parent="1">
          <mxGeometry x="-110" y="60" width="180" height="180" as="geometry" />
        </mxCell>
        <mxCell id="c6FaymkkDzmxYYNCoGBe-29" style="edgeStyle=orthogonalEdgeStyle;rounded=0;orthogonalLoop=1;jettySize=auto;html=1;" edge="1" parent="1" source="c6FaymkkDzmxYYNCoGBe-28" target="c6FaymkkDzmxYYNCoGBe-1">
          <mxGeometry relative="1" as="geometry" />
        </mxCell>
        <mxCell id="c6FaymkkDzmxYYNCoGBe-28" value="" style="points=[];aspect=fixed;html=1;align=center;shadow=0;dashed=0;fillColor=#FF6A00;strokeColor=none;shape=mxgraph.alibaba_cloud.dbs_database_backup;" vertex="1" parent="1">
          <mxGeometry x="278.73" y="700" width="107.04" height="100" as="geometry" />
        </mxCell>
        <mxCell id="oeYRw5XU4TpE4Uy6NgoU-6" value="Load Balancing" style="text;html=1;align=center;verticalAlign=middle;resizable=0;points=[];autosize=1;strokeColor=none;fillColor=none;" vertex="1" parent="1">
          <mxGeometry x="529.5" y="81" width="110" height="30" as="geometry" />
        </mxCell>
        <mxCell id="oeYRw5XU4TpE4Uy6NgoU-7" value="Cloudfront" style="text;html=1;align=center;verticalAlign=middle;resizable=0;points=[];autosize=1;strokeColor=none;fillColor=none;" vertex="1" parent="1">
          <mxGeometry x="290" y="258" width="80" height="30" as="geometry" />
        </mxCell>
        <mxCell id="oeYRw5XU4TpE4Uy6NgoU-8" value="Amazon Route 53" style="text;html=1;align=center;verticalAlign=middle;resizable=0;points=[];autosize=1;strokeColor=none;fillColor=none;" vertex="1" parent="1">
          <mxGeometry x="250" y="78" width="120" height="30" as="geometry" />
        </mxCell>
        <mxCell id="oeYRw5XU4TpE4Uy6NgoU-9" value="EC2" style="text;html=1;align=center;verticalAlign=middle;resizable=0;points=[];autosize=1;strokeColor=none;fillColor=none;" vertex="1" parent="1">
          <mxGeometry x="585" y="258" width="50" height="30" as="geometry" />
        </mxCell>
        <mxCell id="oeYRw5XU4TpE4Uy6NgoU-10" value="AWS S3" style="text;html=1;align=center;verticalAlign=middle;resizable=0;points=[];autosize=1;strokeColor=none;fillColor=none;" vertex="1" parent="1">
          <mxGeometry x="325" y="588" width="70" height="30" as="geometry" />
        </mxCell>
        <mxCell id="oeYRw5XU4TpE4Uy6NgoU-11" value="DBS Database Backup" style="text;html=1;align=center;verticalAlign=middle;resizable=0;points=[];autosize=1;strokeColor=none;fillColor=none;" vertex="1" parent="1">
          <mxGeometry x="385.77" y="720" width="150" height="30" as="geometry" />
        </mxCell>
        <mxCell id="oeYRw5XU4TpE4Uy6NgoU-12" value="RDS" style="text;html=1;align=center;verticalAlign=middle;resizable=0;points=[];autosize=1;strokeColor=none;fillColor=none;" vertex="1" parent="1">
          <mxGeometry x="715" y="588" width="50" height="30" as="geometry" />
        </mxCell>
      </root>
    </mxGraphModel>
  </diagram>
  <diagram id="f5rmibWBp11kq-y7-Xri" name="Page-2">
    <mxGraphModel grid="1" page="1" gridSize="10" guides="1" tooltips="1" connect="1" arrows="1" fold="1" pageScale="1" pageWidth="850" pageHeight="1100" math="0" shadow="0">
      <root>
        <mxCell id="0" />
        <mxCell id="1" parent="0" />
      </root>
    </mxGraphModel>
  </diagram>
</mxfile>
